<svg width="225.15999603271487" height="46.68093041747923" viewBox="0 0 448.5745987445388 93" class="looka-1j8o68f"><defs id="SvgjsDefs1058"></defs><g id="SvgjsG1059" featurekey="symbolGroupContainer" transform="matrix(1,0,0,1,0,0)" fill="#111111"><rect width="103" height="93" rx="8"></rect></g><g id="SvgjsG1060" featurekey="symbolFeature-0" transform="matrix(0.08974358974358974,0,0,0.08974358974358974,20.08974358974359,15.08974358974359)" fill="#f6f6f6"><g xmlns="http://www.w3.org/2000/svg"><title>background</title><rect x="-1" y="-1" width="702" height="702" style="fill: none;"></rect></g><g xmlns="http://www.w3.org/2000/svg"><title>Layer 1</title><g><g><path d="M222,158.3c-31,0.7-57.5,21-79.5,60.8c-23.1,44.8-34.5,94.6-34.3,149.4c0.4,6.6,1.1,7.2,2.2,1.9     c9.3-40.3,19-71.8,29.1-94.6c9.9-22.9,20.9-41.7,32.9-56.2c27.6-32.1,51.5-37.3,71.8-15.6c22.2,25.6,34,68.8,35.4,129.4     c-1.2,81.5-11.9,143.1-32.1,185c-25.3,51-51.3,68-77.7,50.8c-36-28.7-56-92.3-60-190.6c-1.4-3.4-2.7-0.9-3.7,7.5     c-1.9,10.2-3.2,21.4-4,33.3c-3,53.4,4.1,98.7,21.2,135.9c17.5,35.3,40.8,53.2,69.9,53.8c31.4-0.5,60-21,85.9-61.7     c25.8-42.5,42.4-94.3,49.7-155.6c2.7-65.2-6.1-120.7-26.3-166.5c-20.4-43.6-47.1-66-80-67.2"></path></g><g><path d="M452,134.1c-16.1-26.4-46.9-39.3-92.4-38.5c-50.3,2.4-99.2,17.4-146.6,45c-5.5,3.6-5.7,4.6-0.6,2.9     c39.6-12.1,71.7-19.5,96.4-22.1c24.8-2.9,46.5-2.8,65.1,0.4c41.6,7.9,58.1,26,49.4,54.4c-11.1,32-42.6,63.8-94.4,95.4     c-71.2,39.7-129.9,61.3-176.2,64.7c-56.9,3.6-84.5-10.4-82.8-41.9C77,248.8,122,199.7,205.1,147c2.2-2.9-0.6-2.7-8.3,0.6     c-9.8,3.5-20.1,7.9-30.9,13.2c-47.7,24.1-83.5,52.9-107.1,86.3c-21.8,32.8-25.7,62-11.7,87.4c16.1,26.9,48.2,41.4,96.4,43.5     c49.7,1.1,102.9-10.4,159.6-34.8c57.8-30.3,101.5-65.6,131-106c27.6-39.5,33.6-73.8,18.2-102.9"></path></g><g><path d="M588,321.2c14.8-27.2,10.6-60.3-12.9-99.3c-27.3-42.4-64.7-77.2-112.3-104.4c-5.9-3-6.8-2.7-2.8,0.9     c30.3,28.2,52.7,52.4,67.4,72.4c14.9,20.1,25.7,38.9,32.2,56.6c14,40,6.5,63.3-22.4,69.9c-33.3,6.4-76.5-5-129.8-34     c-69.9-41.8-118-81.9-144.2-120.2c-31.5-47.5-33.2-78.4-5.1-92.7c42.9-16.8,107.9-2.3,195.1,43.4c3.6,0.4,2.1-1.9-4.7-6.9     c-7.9-6.8-16.9-13.5-26.9-20.2c-44.7-29.3-87.5-45.8-128.3-49.6c-39.3-2.5-66.5,8.7-81.6,33.6c-15.3,27.4-11.8,62.5,10.5,105.2     c23.9,43.6,60.5,83.9,109.9,120.8c55.1,34.9,107.6,55.1,157.3,60.4c48,4.1,80.8-7.8,98.2-35.7"></path></g><g><path d="M494,532.5c31-0.7,57.5-21,79.5-60.8c23.1-44.8,34.5-94.6,34.3-149.4c-0.4-6.6-1.1-7.2-2.2-1.9     c-9.3,40.3-19,71.8-29.1,94.6c-9.9,22.9-20.9,41.7-32.9,56.2c-27.6,32.1-51.5,37.3-71.8,15.6c-22.2-25.6-34-68.8-35.4-129.4     c1.2-81.5,11.9-143.1,32.1-185c25.3-51,51.3-68,77.7-50.8c36,28.7,56,92.3,60,190.6c1.4,3.4,2.7,0.9,3.7-7.5     c1.9-10.2,3.2-21.4,4-33.3c3-53.4-4.1-98.7-21.2-135.9c-17.5-35.3-40.8-53.2-69.9-53.8c-31.4,0.5-60,21-85.9,61.7     c-25.8,42.5-42.4,94.3-49.7,155.6c-2.7,65.2,6.1,120.7,26.3,166.5c20.4,43.6,47.1,66,80,67.2"></path></g><g><path d="M128,369.6c-14.8,27.2-10.6,60.3,12.9,99.3c27.3,42.4,64.7,77.2,112.3,104.4c5.9,3,6.8,2.7,2.8-0.9     c-30.3-28.2-52.7-52.4-67.4-72.4c-14.9-20.1-25.7-38.9-32.2-56.6c-14-40-6.5-63.3,22.4-69.9c33.3-6.4,76.5,5,129.8,34     c69.9,41.8,118,81.9,144.2,120.2c31.5,47.5,33.2,78.4,5.1,92.7c-42.9,16.8-107.9,2.3-195.1-43.4c-3.6-0.4-2.1,1.9,4.7,6.9     c7.9,6.8,16.9,13.5,26.9,20.2c44.7,29.3,87.5,45.8,128.3,49.6c39.3,2.5,66.5-8.7,81.6-33.6c15.3-27.4,11.8-62.5-10.5-105.2     c-23.9-43.6-60.5-83.9-109.9-120.8c-55.1-34.9-107.6-55.1-157.3-60.4c-48-4.1-80.8,7.8-98.2,35.7"></path></g><g><path d="M264,556.7c16.1,26.4,46.9,39.3,92.4,38.5c50.3-2.4,99.2-17.4,146.6-45c5.5-3.6,5.7-4.6,0.6-2.9     c-39.6,12.1-71.7,19.5-96.4,22.1c-24.8,2.9-46.5,2.8-65.1-0.4c-41.6-7.9-58.1-26-49.4-54.4c11.1-32,42.6-63.8,94.4-95.4     c71.2-39.7,129.9-61.3,176.2-64.7c56.9-3.6,84.5,10.4,82.8,41.9c-6.9,45.5-51.9,94.6-135.1,147.3c-2.2,2.9,0.6,2.7,8.3-0.6     c9.8-3.5,20.1-7.9,30.9-13.2c47.7-24.1,83.5-52.9,107.1-86.3c21.8-32.8,25.7-62,11.7-87.4c-16.1-26.9-48.2-41.4-96.3-43.5     c-49.7-1.1-102.9,10.4-159.6,34.8c-57.8,30.3-101.5,65.6-131,106c-27.6,39.5-33.6,73.8-18.2,102.9"></path></g></g></g></g><g id="SvgjsG1061" featurekey="sloganFeature-0" transform="matrix(1.211305157464033,0,0,1.211305157464033,122.61238232217573,54.48317869181594)" fill="#111111"><path d="M0.32 5.619999999999999 q0.72 -0.12 1.64 -0.12 q0.36 0 0.73 0.02 t0.73 0.1 l2.06 10.82 l2.48 -10.82 q0.4 -0.06 0.74 -0.09 t0.7 -0.03 q0.6 0 1.3 0.12 l2.58 11.1 l2.06 -11.1 q0.62 -0.12 1.28 -0.12 q0.4 0 0.78 0.04 l0.74 0.08 l-3.46 14.38 q-0.72 0.12 -1.49 0.12 t-1.67 -0.12 l-2.3 -9.58 l-2.48 9.58 l-0.84 0.08 q-0.38 0.04 -0.82 0.04 q-0.62 0 -1.34 -0.12 z M19.82 5.619999999999999 q0.74 -0.12 1.46 -0.12 t1.48 0.12 l0 5.64 l4.82 0 l0 -5.64 q0.74 -0.12 1.46 -0.12 t1.48 0.12 l0 14.38 q-0.76 0.12 -1.48 0.12 t-1.46 -0.12 l0 -6.22 l-4.82 0 l0 6.22 q-0.76 0.12 -1.48 0.12 t-1.46 -0.12 l0 -14.38 z M33.32 5.619999999999999 l8.16 0 q0.12 0.6 0.12 1.24 t-0.12 1.24 l-5.24 0 l0 3.12 l4.16 0 q0.12 0.64 0.12 1.26 t-0.12 1.24 l-4.16 0 l0 3.8 l5.38 0 q0.12 0.6 0.12 1.24 t-0.12 1.24 l-8.3 0 l0 -14.38 z M44.080000000000005 5.619999999999999 q0.88 -0.1 1.65 -0.17 t1.71 -0.07 q1.1 0 2.17 0.2 t1.93 0.71 t1.39 1.38 t0.53 2.21 q0 0.8 -0.2 1.41 t-0.51 1.07 t-0.67 0.79 t-0.68 0.53 l-0.34 0.22 l3.5 6.08 l-0.84 0.08 q-0.44 0.04 -0.9 0.04 q-0.76 0 -1.5 -0.12 l-3.76 -6.68 l0.48 -0.24 q0.28 -0.14 0.68 -0.36 t0.77 -0.55 t0.63 -0.8 t0.26 -1.11 q0 -1.26 -0.72 -1.85 t-1.86 -0.59 q-0.44 0 -0.8 0.06 l0 12.14 l-0.72 0.06 q-0.36 0.04 -0.7 0.04 t-0.72 -0.02 t-0.78 -0.08 l0 -14.38 z M56.160000000000004 5.619999999999999 l8.16 0 q0.12 0.6 0.12 1.24 t-0.12 1.24 l-5.24 0 l0 3.12 l4.16 0 q0.12 0.64 0.12 1.26 t-0.12 1.24 l-4.16 0 l0 3.8 l5.38 0 q0.12 0.6 0.12 1.24 t-0.12 1.24 l-8.3 0 l0 -14.38 z M73.98000000000002 8.1 l-3.58 0 q-0.12 -0.6 -0.12 -1.24 t0.12 -1.24 l10.1 0 q0.12 0.6 0.12 1.24 t-0.12 1.24 l-3.58 0 l0 11.9 l-0.72 0.06 q-0.36 0.04 -0.7 0.04 t-0.73 -0.02 t-0.79 -0.08 l0 -11.9 z M82.52000000000002 5.619999999999999 l8.16 0 q0.12 0.6 0.12 1.24 t-0.12 1.24 l-5.24 0 l0 3.12 l4.16 0 q0.12 0.64 0.12 1.26 t-0.12 1.24 l-4.16 0 l0 3.8 l5.38 0 q0.12 0.6 0.12 1.24 t-0.12 1.24 l-8.3 0 l0 -14.38 z M102.64000000000003 17.28 q0.26 0.56 0.43 1.15 t0.25 1.19 q-1.04 0.38 -1.87 0.5 t-1.79 0.12 q-1.7 0 -2.98 -0.55 t-2.15 -1.54 t-1.31 -2.35 t-0.44 -2.96 t0.46 -2.97 t1.33 -2.37 t2.14 -1.56 t2.89 -0.56 q0.96 0 1.77 0.12 t1.75 0.5 q-0.04 0.6 -0.24 1.17 t-0.44 1.15 q-0.7 -0.24 -1.24 -0.34 t-1.28 -0.1 q-1.92 0 -2.95 1.25 t-1.03 3.71 q0 4.88 4.14 4.88 q0.74 0 1.3 -0.1 t1.26 -0.34 z M105.50000000000003 5.619999999999999 q0.74 -0.12 1.46 -0.12 t1.48 0.12 l0 5.64 l4.82 0 l0 -5.64 q0.74 -0.12 1.46 -0.12 t1.48 0.12 l0 14.38 q-0.76 0.12 -1.48 0.12 t-1.46 -0.12 l0 -6.22 l-4.82 0 l0 6.22 q-0.76 0.12 -1.48 0.12 t-1.46 -0.12 l0 -14.38 z M123.80000000000003 5.619999999999999 q0.8 -0.12 1.56 -0.12 t1.52 0.12 l3.3 8.24 l3.4 -8.24 q0.62 -0.12 1.38 -0.12 t1.46 0.12 l0.68 14.38 q-0.76 0.12 -1.44 0.12 t-1.34 -0.12 l-0.36 -9.76 l-2.92 6.76 q-0.28 0.04 -0.58 0.07 t-0.58 0.03 t-0.54 -0.02 t-0.54 -0.08 l-2.72 -6.9 l-0.28 9.9 q-0.64 0.12 -1.26 0.12 t-1.3 -0.12 z M139.74000000000004 5.619999999999999 l8.16 0 q0.12 0.6 0.12 1.24 t-0.12 1.24 l-5.24 0 l0 3.12 l4.16 0 q0.12 0.64 0.12 1.26 t-0.12 1.24 l-4.16 0 l0 3.8 l5.38 0 q0.12 0.6 0.12 1.24 t-0.12 1.24 l-8.3 0 l0 -14.38 z M150.36000000000004 5.619999999999999 l8.16 0 q0.12 0.6 0.12 1.24 t-0.12 1.24 l-5.24 0 l0 3.12 l4.16 0 q0.12 0.64 0.12 1.26 t-0.12 1.24 l-4.16 0 l0 3.8 l5.38 0 q0.12 0.6 0.12 1.24 t-0.12 1.24 l-8.3 0 l0 -14.38 z M163.78000000000003 8.1 l-3.58 0 q-0.12 -0.6 -0.12 -1.24 t0.12 -1.24 l10.1 0 q0.12 0.6 0.12 1.24 t-0.12 1.24 l-3.58 0 l0 11.9 l-0.72 0.06 q-0.36 0.04 -0.7 0.04 t-0.73 -0.02 t-0.79 -0.08 l0 -11.9 z M174.94000000000005 13.34 q-0.68 -0.26 -1.22 -0.57 t-0.92 -0.74 t-0.59 -1.03 t-0.21 -1.44 q0 -1.02 0.35 -1.8 t0.99 -1.31 t1.54 -0.8 t2.02 -0.27 q1.02 0 1.91 0.18 t1.87 0.52 q-0.12 1.16 -0.64 2.28 l-0.6 -0.24 q-0.32 -0.12 -0.67 -0.2 t-0.79 -0.13 t-1 -0.05 q-0.34 0 -0.69 0.06 t-0.63 0.22 t-0.46 0.47 t-0.18 0.81 q0 0.4 0.14 0.67 t0.38 0.46 t0.54 0.31 l0.6 0.26 l1.2 0.46 q0.76 0.3 1.38 0.62 t1.05 0.79 t0.67 1.14 t0.24 1.67 t-0.37 1.84 t-1.07 1.44 t-1.73 0.94 t-2.37 0.34 q-0.66 0 -1.18 -0.04 t-0.99 -0.13 t-0.93 -0.23 t-0.96 -0.34 q0.06 -0.58 0.22 -1.21 t0.38 -1.27 q0.84 0.34 1.58 0.51 t1.58 0.17 q1.26 0 1.98 -0.47 t0.72 -1.43 q0 -0.48 -0.17 -0.8 t-0.44 -0.54 t-0.61 -0.37 t-0.7 -0.29 z M187.72000000000006 5.619999999999999 l8.16 0 q0.12 0.6 0.12 1.24 t-0.12 1.24 l-5.24 0 l0 3.38 l4.16 0 q0.12 0.64 0.12 1.26 t-0.12 1.24 l-4.16 0 l0 6.02 q-0.76 0.12 -1.44 0.12 q-0.74 0 -1.48 -0.12 l0 -14.38 z M197.86000000000004 5.619999999999999 q0.74 -0.12 1.46 -0.12 t1.48 0.12 l0 14.38 q-0.76 0.12 -1.48 0.12 t-1.46 -0.12 l0 -14.38 z M203.60000000000005 5.619999999999999 q0.62 -0.12 1.2 -0.12 t1.22 0.12 l5.56 9.16 l0 -9.16 q0.72 -0.12 1.36 -0.12 t1.22 0.12 l0 14.38 q-0.64 0.12 -1.18 0.12 t-1.2 -0.12 l-5.6 -9.14 l0 9.14 q-0.64 0.12 -1.3 0.12 t-1.28 -0.12 l0 -14.38 z M220.30000000000007 5.619999999999999 q0.42 -0.06 0.8 -0.09 t0.84 -0.03 q0.4 0 0.78 0.03 t0.84 0.09 l4.5 14.38 q-0.82 0.12 -1.59 0.12 t-1.49 -0.12 l-0.8 -2.88 l-4.76 0 l-0.82 2.88 q-0.72 0.12 -1.38 0.12 q-0.74 0 -1.46 -0.12 z M223.50000000000006 14.7 l-1.66 -6.04 l-1.74 6.04 l3.4 0 z M229.68000000000006 5.619999999999999 q0.62 -0.12 1.2 -0.12 t1.22 0.12 l5.56 9.16 l0 -9.16 q0.72 -0.12 1.36 -0.12 t1.22 0.12 l0 14.38 q-0.64 0.12 -1.18 0.12 t-1.2 -0.12 l-5.6 -9.14 l0 9.14 q-0.64 0.12 -1.3 0.12 t-1.28 -0.12 l0 -14.38 z M252.54000000000005 17.28 q0.26 0.56 0.43 1.15 t0.25 1.19 q-1.04 0.38 -1.87 0.5 t-1.79 0.12 q-1.7 0 -2.98 -0.55 t-2.15 -1.54 t-1.31 -2.35 t-0.44 -2.96 t0.46 -2.97 t1.33 -2.37 t2.14 -1.56 t2.89 -0.56 q0.96 0 1.77 0.12 t1.75 0.5 q-0.04 0.6 -0.24 1.17 t-0.44 1.15 q-0.7 -0.24 -1.24 -0.34 t-1.28 -0.1 q-1.92 0 -2.95 1.25 t-1.03 3.71 q0 4.88 4.14 4.88 q0.74 0 1.3 -0.1 t1.26 -0.34 z M255.40000000000006 5.619999999999999 l8.16 0 q0.12 0.6 0.12 1.24 t-0.12 1.24 l-5.24 0 l0 3.12 l4.16 0 q0.12 0.64 0.12 1.26 t-0.12 1.24 l-4.16 0 l0 3.8 l5.38 0 q0.12 0.6 0.12 1.24 t-0.12 1.24 l-8.3 0 l0 -14.38 z M266.0400000000001 20 q-0.12 -0.74 -0.12 -1.46 t0.12 -1.48 q0.74 -0.12 1.46 -0.12 t1.48 0.12 q0.12 0.76 0.12 1.48 t-0.12 1.46 q-0.76 0.12 -1.48 0.12 t-1.46 -0.12 z"></path></g><g id="SvgjsG1062" featurekey="nameLeftFeature-0" transform="matrix(1.182702551094931,0,0,1.182702551094931,198.6556207478853,3.4568273422665303)" fill="#111111"><path d="M2.04 31.8 l-0.04 0 c0 1 -0.04 2.04 0 3.08 c0.04 1.28 0.08 2.56 0.16 3.84 c0.04 0.44 0.12 0.56 0.56 0.64 c0.8 0.2 1.64 0.24 2.48 0.24 c2.16 -0.08 2.16 -0.44 2.16 -1.92 c-0.08 -0.76 -0.04 -1.08 -0.04 -2 c0 -1.32 -0.04 -1.48 -0.04 -3.36 c0.04 -1.52 0.04 -3.48 0.04 -5.04 c0 -0.84 0.12 -1.12 0.88 -1.12 l5.84 0 c0.84 0.12 0.52 -0.44 0.52 -1.28 s0.12 -0.88 0.08 -1.72 c0 -0.4 -0.08 -0.8 -0.12 -1.2 c-0.08 -0.68 -0.32 -0.92 -1 -0.92 c-0.44 0 -0.04 0.04 -0.44 0.08 c-1.72 0.12 -3.36 -0.12 -5.08 0 c-0.56 0 -0.64 -0.08 -0.68 -0.6 c-0.12 -1.56 0 -3.28 0.16 -4.84 c0.08 -0.64 0.2 -0.76 0.8 -0.8 l5.64 -0.04 c0.8 -0.08 1.04 -0.04 0.96 -0.8 c-0.08 -1.16 0.08 -2.36 -0.08 -3.52 c-0.08 -0.64 -0.24 -0.76 -0.96 -0.76 c-1.2 0.04 -1.48 0.04 -2.68 0.12 c-1.2 0.04 -6.04 0.04 -7.2 0.04 c-1.64 0 -1.8 -0.12 -1.84 1.92 c-0.04 1.6 -0.04 3.24 -0.04 4.88 c0 2.8 -0.16 12.84 -0.04 15.08 z M24.4 29.68 c-0.12 -4.56 -0.08 -9.4 -0.04 -13.92 c0 -1.4 -0.08 -2.92 -0.08 -4.32 c0 -1.52 -0.6 -1.44 -1.4 -1.48 c-1.16 -0.04 -1.68 -0.04 -2.84 -0.04 c-0.76 -0.04 -1.08 0.16 -1.08 0.92 c0 3.92 -0.12 15 -0.08 16.6 s0.2 8.88 0.12 10.48 c-0.04 0.56 0 1.12 0.04 1.68 c0.04 0.2 0.16 0.4 0.48 0.4 c1.32 -0.08 2.56 -0.08 3.88 -0.12 c0.48 -0.04 0.88 -0.16 1.08 -0.68 c0.04 -0.28 -0.08 -7.6 -0.08 -9.52 z M45.519999999999996 10.920000000000002 c0.12 0.56 0.04 27.2 0.04 27.88 c0 1.2 -0.44 1.16 -1.24 1.16 c-1.2 0 -2.88 0.2 -3.24 -0.2 c-0.32 -0.28 -6.24 -14.56 -7.08 -16.36 c-0.08 -0.16 -0.28 -0.56 -0.44 -0.48 c-0.2 0.08 -0.12 0.36 -0.12 0.52 c-0.04 1.4 0.2 13.48 0.2 15.4 c0 0.96 -0.04 1.12 -0.84 1.12 l-2 0 c-0.52 0 -1.16 -0.04 -1.68 0.04 c-0.4 0 -0.6 -0.12 -0.64 -0.52 l0 -3.16 c0.08 -3.36 0 -23.28 0 -24.76 c0 -1.28 0.36 -1.52 1.64 -1.52 c0.88 -0.04 1.76 -0.04 2.64 -0.04 c0.28 0 0.44 0.04 0.6 0.4 c1.08 2.52 5.68 14.08 6.4 15.48 c0.12 0.28 0.56 1.4 0.8 1.52 l0.04 0 c0.16 -0.16 0.12 -0.96 0.12 -1.2 c0 -0.6 -0.32 -14.64 -0.32 -14.92 c0 -0.4 -0.12 -0.76 0.08 -1.04 c0.12 -0.16 0.64 -0.2 0.84 -0.24 c1.12 -0.08 2.44 0.04 3.56 0 c0.56 0 0.52 0.4 0.64 0.92 z M57.75999999999999 9.8 c-0.76 0.04 -1.52 0.16 -2.28 0.4 c-1.64 0.56 -3.12 1.68 -4.12 3.12 c-0.88 1.32 -1.24 2.88 -1.36 4.44 c-0.08 1.2 0.04 2.44 0.6 3.52 c0.6 1.16 1.64 2.16 2.52 3.12 c0.8 0.84 1.6 1.68 2.48 2.44 c0.8 0.76 1.72 1.36 2.52 2.16 c1.16 1.16 1.6 3.8 0.76 5.24 c-1 1.6 -3.36 1.84 -4.92 1.32 c-0.8 -0.28 -1.52 -0.88 -2.2 -1.36 c-0.4 -0.28 -0.88 -0.4 -1.16 0.08 c-0.16 0.24 -0.24 0.52 -0.32 0.76 c-0.28 1 -0.64 1.92 -0.68 3 c-0.04 1.24 2.32 1.6 3.2 1.8 c3.92 0.92 8.64 0.2 10.68 -3.68 c0.4 -0.8 0.68 -1.64 0.84 -2.52 c0.04 -0.32 0.08 -0.6 0.08 -0.92 c0.16 -2.56 -0.88 -4.72 -2.44 -6.64 c-1.68 -2.08 -3.8 -3.52 -5.76 -5.32 c-1.2 -1.12 -1.64 -2.88 -1.28 -4.48 c0.36 -1.72 2.32 -2.16 3.8 -1.72 c0.44 0.12 0.8 0.32 1.2 0.56 c0.24 0.12 0.48 0.28 0.8 0.28 c0.56 0.04 0.64 -0.4 0.76 -0.84 c0.28 -1 0.76 -1.8 0.96 -2.76 c0.2 -1.08 -0.68 -1.28 -1.56 -1.56 c-1.04 -0.28 -2.04 -0.48 -3.12 -0.44 z"></path></g><g id="SvgjsG1063" featurekey="inlineSymbolFeature-0" transform="matrix(0.45,0,0,0.45,275.5,10.5)" fill="#111111"><path xmlns="http://www.w3.org/2000/svg" d="M50,10L10,90h80L50,10z M50,24.909L72.546,70H42.36l3.333-6.667h16.064L50,39.814L31.575,76.667h44.304l3.333,6.666H20.788  L50,24.909z"></path></g><g id="SvgjsG1064" featurekey="nameRightFeature-0" transform="matrix(1.19682482995958,0,0,1.19682482995958,318.61089817308005,3.0671619076992993)" fill="#111111"><path d="M10.76 40.04 c0.6 0 2.8 0.04 3.24 -0.04 c0.28 -0.08 0.44 -0.8 0.52 -1.04 c0.24 -0.76 0.4 -1.56 0.6 -2.32 c0.44 -2 4.88 -18.8 6.44 -25.08 c0.08 -0.28 0.16 -0.6 0.08 -0.88 c-0.12 -0.6 -0.48 -0.68 -0.96 -0.68 c-0.92 0.04 -1.84 0 -2.76 0 c-1.04 0 -1.44 0.12 -1.76 1.28 c-1.56 5.36 -2.6 11.76 -4.04 17.2 l-0.24 0.64 c0 0.04 -0.16 0 -0.16 0 c-0.08 -0.2 -0.2 -0.36 -0.24 -0.56 c-1.44 -5.72 -3.8 -17.04 -4.2 -18.12 c-0.24 -0.64 -0.84 -0.44 -1.4 -0.44 c-1.12 0 -2.16 0.04 -3.24 0.04 c-0.4 0.04 -0.68 0.2 -0.64 0.6 c0 0.32 0.44 2.08 0.52 2.56 l0.44 1.68 c0.28 1.28 0.68 2.88 0.96 4.12 c1.52 6.36 3.16 12.72 4.96 19 c0.16 0.56 0.28 1.52 0.68 1.84 c0.32 0.28 0.84 0.16 1.2 0.2 z M32.92 27.759999999999998 l0.04 11.68 c0 0.44 0.4 0.6 0.72 0.6 l3.68 0 c0.68 0 0.68 -0.6 0.68 -0.88 c0 -3.76 0 -7.8 0.16 -11.6 c0 -0.64 0.08 -1.24 0.4 -1.84 c0.36 -0.6 5.68 -12.48 6.28 -14.44 c0.08 -0.28 0.24 -0.76 -0.04 -1 c-0.48 -0.44 -2.4 -0.24 -3.56 -0.24 c-0.72 0 -1.16 0.28 -1.48 1 c-1.36 3.16 -2.76 6.28 -4.16 9.44 c-0.12 0.28 -0.28 0.28 -0.48 0 c-0.44 -0.72 -3.28 -7.76 -3.72 -9.32 c-0.08 -0.2 -0.12 -0.4 -0.24 -0.56 c-0.56 -0.64 -1.48 -0.56 -2.24 -0.56 c-1 0 -1.72 0.04 -2.68 0.04 c-0.64 0 -0.68 0.6 -0.56 1.12 c0.04 0.2 0.16 0.4 0.24 0.56 c1.52 2.88 5.8 12.4 6.56 14.2 c0.4 0.84 0.36 0.88 0.4 1.8 z"></path></g></svg>